<?xml version="1.0" encoding="UTF-8" standalone="no"?>
<!-- Created with Inkscape (http://www.inkscape.org/) -->

<svg
   xmlns:dc="http://purl.org/dc/elements/1.1/"
   xmlns:cc="http://creativecommons.org/ns#"
   xmlns:rdf="http://www.w3.org/1999/02/22-rdf-syntax-ns#"
   xmlns:svg="http://www.w3.org/2000/svg"
   xmlns="http://www.w3.org/2000/svg"
   xmlns:sodipodi="http://sodipodi.sourceforge.net/DTD/sodipodi-0.dtd"
   xmlns:inkscape="http://www.inkscape.org/namespaces/inkscape"
   width="109.36239mm"
   height="210mm"
   viewBox="0 0 109.36239 210"
   version="1.1"
   id="svg8"
   inkscape:version="0.92.4 (5da689c313, 2019-01-14)"
   sodipodi:docname="c500_ice_pack.svg">
  <defs
     id="defs2" />
  <sodipodi:namedview
     id="base"
     pagecolor="#ffffff"
     bordercolor="#666666"
     borderopacity="1.0"
     inkscape:pageopacity="0.0"
     inkscape:pageshadow="2"
     inkscape:zoom="0.98994949"
     inkscape:cx="132.79853"
     inkscape:cy="409.14173"
     inkscape:document-units="mm"
     inkscape:current-layer="layer1"
     showgrid="false"
     inkscape:window-width="1918"
     inkscape:window-height="1178"
     inkscape:window-x="0"
     inkscape:window-y="20"
     inkscape:window-maximized="1"
     fit-margin-top="0"
     fit-margin-left="0"
     fit-margin-right="0"
     fit-margin-bottom="0" />
  <metadata
     id="metadata5">
    <rdf:RDF>
      <cc:Work
         rdf:about="">
        <dc:format>image/svg+xml</dc:format>
        <dc:type
           rdf:resource="http://purl.org/dc/dcmitype/StillImage" />
        <dc:title></dc:title>
      </cc:Work>
    </rdf:RDF>
  </metadata>
  <g
     inkscape:label="Layer 1"
     inkscape:groupmode="layer"
     id="layer1"
     transform="translate(-48.95005,29.346246)">
    <path
       style="fill:none;stroke:#000000;stroke-width:1.46214807;stroke-miterlimit:4;stroke-dasharray:none;stroke-opacity:1"
       d="m 87.240176,-9.0688101 c 2.200465,-2.2607119 5.094467,-3.2025339 9.113605,-2.9659349 1.275885,0.07511 2.365214,0.05391 2.420718,-0.04711 0.05541,-0.101078 0.129838,-3.067465 0.165003,-6.592101 0.06916,-6.919487 0.172168,-7.237386 2.775348,-8.568008 1.66815,-0.852684 6.48922,-1.562456 9.00404,-1.325605 2.25355,0.212242 5.7009,1.706239 6.36827,2.759839 0.2658,0.41965 0.57861,3.871482 0.69513,7.670739 0.11653,3.799256 0.21853,6.967365 0.22669,7.040241 0.009,0.07287 2.30316,0.270984 5.09997,0.440237 4.70662,0.284826 5.292,0.413428 7.86481,1.7277777 2.17331,1.1102602 3.16602,1.8501773 4.55051,3.3917228 3.81364,4.2462753 11.19788,17.8915205 14.63074,27.0359505 5.71761,15.230545 8.02621,30.2205 7.29547,47.369999 -0.13217,3.103102 -0.47647,7.208536 -0.76498,9.123189 -0.28852,1.914654 -0.58527,3.934231 -0.65943,4.487961 -0.67188,5.016659 -3.5288,15.328195 -6.09262,21.990313 -3.66256,9.51716 -12.0699,24.56373 -15.49406,27.72963 -1.56299,1.4451 -4.43828,2.40006 -7.26816,2.41395 -4.93483,0.0243 -8.03328,1.6733 -10.13879,5.3961 -1.28907,2.27926 -1.53749,3.77414 -1.1278,6.78674 0.25044,1.84152 -0.35328,4.76356 -1.34725,6.52078 -1.8845,3.33161 -14.3514,12.01731 -25.971577,18.09444 -5.240399,2.74063 -14.247618,6.49715 -18.51034,7.71988 -3.838744,1.10111 -8.182689,1.03417 -11.111118,-0.17121 -4.51878,-1.85998 -7.750582,-6.51229 -8.243361,-11.86662 -0.099,-1.07576 -0.426839,-11.18082 -0.728511,-22.45571 -0.641649,-23.98145 -0.61793,-24.20004 3.395265,-31.29494 2.809506,-4.9669 4.651528,-6.82339 9.895674,-9.97343 8.0454,-4.832686 11.766349,-8.388031 16.091974,-15.375797 2.355704,-3.805489 2.985039,-5.121086 4.183384,-8.74521 2.550604,-7.713708 2.665503,-9.54113 2.155947,-34.289789 C 85.333453,26.440896 84.812697,7.4242517 84.575108,3.3433308 84.45106,1.2125557 84.384716,-1.3473453 84.427687,-2.3453373 c 0.0858,-1.9926227 1.501226,-5.3763066 2.812489,-6.7234728 z"
       id="path826"
       inkscape:connector-curvature="0" />
  </g>
</svg>
