<?xml version="1.0" encoding="UTF-8" standalone="no"?>
<!-- Created with Inkscape (http://www.inkscape.org/) -->

<svg
   xmlns:dc="http://purl.org/dc/elements/1.1/"
   xmlns:cc="http://creativecommons.org/ns#"
   xmlns:rdf="http://www.w3.org/1999/02/22-rdf-syntax-ns#"
   xmlns:svg="http://www.w3.org/2000/svg"
   xmlns="http://www.w3.org/2000/svg"
   xmlns:sodipodi="http://sodipodi.sourceforge.net/DTD/sodipodi-0.dtd"
   xmlns:inkscape="http://www.inkscape.org/namespaces/inkscape"
   width="109.36243mm"
   height="205.9998mm"
   viewBox="0 0 109.36244 205.9998"
   version="1.1"
   id="svg8"
   inkscape:version="0.92.4 (5da689c313, 2019-01-14)"
   sodipodi:docname="c500_ice_pack.svg">
  <defs
     id="defs2" />
  <sodipodi:namedview
     id="base"
     pagecolor="#ffffff"
     bordercolor="#666666"
     borderopacity="1.0"
     inkscape:pageopacity="0.0"
     inkscape:pageshadow="2"
     inkscape:zoom="0.98994949"
     inkscape:cx="132.79879"
     inkscape:cy="409.14116"
     inkscape:document-units="mm"
     inkscape:current-layer="layer1"
     showgrid="false"
     inkscape:window-width="1918"
     inkscape:window-height="1178"
     inkscape:window-x="1920"
     inkscape:window-y="20"
     inkscape:window-maximized="1"
     fit-margin-top="0"
     fit-margin-left="0"
     fit-margin-right="0"
     fit-margin-bottom="0" />
  <metadata
     id="metadata5">
    <rdf:RDF>
      <cc:Work
         rdf:about="">
        <dc:format>image/svg+xml</dc:format>
        <dc:type
           rdf:resource="http://purl.org/dc/dcmitype/StillImage" />
        <dc:title></dc:title>
      </cc:Work>
    </rdf:RDF>
  </metadata>
  <g
     inkscape:label="Layer 1"
     inkscape:groupmode="layer"
     id="layer1"
     transform="translate(-48.949981,25.346195)">
    <path
       style="fill:none;stroke:#000000;stroke-width:1.44819999;stroke-miterlimit:4;stroke-dasharray:none;stroke-opacity:1"
       d="m 87.238045,-5.4493961 c 2.20075,-2.2174989 5.095126,-3.1413182 9.114784,-2.9092417 1.27605,0.073674 2.36552,0.052879 2.421032,-0.046209 0.05542,-0.099146 0.129854,-3.0088302 0.165024,-6.4660952 0.06917,-6.787223 0.17219,-7.099044 2.775705,-8.404231 1.66837,-0.836387 6.49006,-1.53259 9.00521,-1.300268 2.25384,0.208185 5.70163,1.673625 6.36909,2.707085 0.26584,0.411629 0.57869,3.79748 0.69522,7.524115 0.11655,3.726634 0.21856,6.8341861 0.22672,6.9056691 0.009,0.071477 2.30346,0.2658042 5.10063,0.431822 4.70723,0.2793816 5.29269,0.4055254 7.86583,1.6947516 2.17359,1.0890379 3.16643,1.8148116 4.5511,3.3268908 3.81413,4.1651088 11.19933,17.5495275 14.63263,26.5191645 5.71835,14.939418 8.02725,29.642843 7.29641,46.464534 -0.13218,3.043786 -0.47653,7.070746 -0.76507,8.948801 -0.28856,1.878056 -0.58535,3.859029 -0.65952,4.402175 -0.67197,4.920766 -3.52926,15.0352 -6.09341,21.569973 -3.66303,9.33524 -12.07146,24.0942 -15.49606,27.19958 -1.5632,1.41748 -4.43886,2.35419 -7.2691,2.36781 -4.93547,0.0238 -8.03432,1.64132 -10.14011,5.29296 -1.28923,2.23569 -1.53768,3.70199 -1.12794,6.65701 0.25047,1.80632 -0.35333,4.67251 -1.34743,6.39614 -1.88474,3.26792 -14.35325,11.7876 -25.974934,17.74857 -5.241077,2.68824 -14.249462,6.37295 -18.512735,7.57231 -3.839241,1.08006 -8.183748,1.0144 -11.112556,-0.16794 -4.519365,-1.82442 -7.751585,-6.3878 -8.244428,-11.63979 -0.09901,-1.0552 -0.426894,-10.9671 -0.728605,-22.02647 -0.641732,-23.52305 -0.61801,-23.73746 3.395704,-30.69675 2.80987,-4.87196 4.65213,-6.69296 9.896955,-9.78279 8.046441,-4.74031 11.767871,-8.227693 16.094056,-15.08189 2.356009,-3.732748 2.985425,-5.023197 4.183926,-8.578047 2.550934,-7.566262 2.665847,-9.358754 2.156226,-33.634348 C 85.331075,29.38155 84.810252,10.728405 84.572632,6.7254897 84.448568,4.6354439 84.382215,2.1244748 84.425192,1.1455591 c 0.08581,-1.95453416 1.50142,-5.2735397 2.812853,-6.5949552 z"
       id="path826"
       inkscape:connector-curvature="0" />
  </g>
</svg>
