solid OpenSCAD_Model
  facet normal 1 -0 0
    outer loop
      vertex 3 3 20
      vertex 3 37 3
      vertex 3 37 20
    endloop
  endfacet
  facet normal 1 0 0
    outer loop
      vertex 3 37 3
      vertex 3 3 20
      vertex 3 3 3
    endloop
  endfacet
  facet normal -1 0 0
    outer loop
      vertex 4.5 7.5 3
      vertex 4.5 35.5 20
      vertex 4.5 35.5 3
    endloop
  endfacet
  facet normal -1 -0 0
    outer loop
      vertex 4.5 35.5 20
      vertex 4.5 7.5 3
      vertex 4.5 7.5 20
    endloop
  endfacet
  facet normal 0 0 1
    outer loop
      vertex 4.5 35.5 3
      vertex 3 37 3
      vertex 4.5 7.5 3
    endloop
  endfacet
  facet normal -0 0 1
    outer loop
      vertex 7.5 4.5 3
      vertex 37 3 3
      vertex 35.5 4.5 3
    endloop
  endfacet
  facet normal 0 0 1
    outer loop
      vertex 7.5 4.5 3
      vertex 3 3 3
      vertex 37 3 3
    endloop
  endfacet
  facet normal 0 0 1
    outer loop
      vertex 4.5 7.5 3
      vertex 3 3 3
      vertex 7.5 4.5 3
    endloop
  endfacet
  facet normal 0 0 1
    outer loop
      vertex 3 3 3
      vertex 4.5 7.5 3
      vertex 3 37 3
    endloop
  endfacet
  facet normal 0 1 -0
    outer loop
      vertex 37 3 3
      vertex 3 3 20
      vertex 37 3 20
    endloop
  endfacet
  facet normal 0 1 0
    outer loop
      vertex 3 3 20
      vertex 37 3 3
      vertex 3 3 3
    endloop
  endfacet
  facet normal 0 -1 0
    outer loop
      vertex 7.5 4.5 3
      vertex 35.5 4.5 20
      vertex 7.5 4.5 20
    endloop
  endfacet
  facet normal 0 -1 -0
    outer loop
      vertex 35.5 4.5 20
      vertex 7.5 4.5 3
      vertex 35.5 4.5 3
    endloop
  endfacet
  facet normal -0.707107 -0.707107 0
    outer loop
      vertex 7.5 4.5 3
      vertex 4.5 7.5 20
      vertex 4.5 7.5 3
    endloop
  endfacet
  facet normal -0.707107 -0.707107 0
    outer loop
      vertex 4.5 7.5 20
      vertex 7.5 4.5 3
      vertex 7.5 4.5 20
    endloop
  endfacet
  facet normal 0 0 -1
    outer loop
      vertex 40 0 0
      vertex 0 0 0
      vertex 0 40 0
    endloop
  endfacet
  facet normal 0 -1 0
    outer loop
      vertex 0 0 0
      vertex 40 0 20
      vertex 0 0 20
    endloop
  endfacet
  facet normal 0 -1 -0
    outer loop
      vertex 40 0 20
      vertex 0 0 0
      vertex 40 0 0
    endloop
  endfacet
  facet normal 0.707107 0.707107 0
    outer loop
      vertex 37 3 20
      vertex 40 0 20
      vertex 37 3 3
    endloop
  endfacet
  facet normal 0.707107 0.707107 0
    outer loop
      vertex 32.5 7.5 20
      vertex 35.5 4.5 20
      vertex 32.5 7.5 3
    endloop
  endfacet
  facet normal 0.707107 0.707107 0
    outer loop
      vertex 4.5 35.5 20
      vertex 7.5 32.5 20
      vertex 4.5 35.5 3
    endloop
  endfacet
  facet normal 0.707107 0.707107 -0
    outer loop
      vertex 3 37 3
      vertex 0 40 20
      vertex 3 37 20
    endloop
  endfacet
  facet normal 0.707107 0.707107 0
    outer loop
      vertex 0 40 20
      vertex 3 37 3
      vertex 0 40 0
    endloop
  endfacet
  facet normal 0.707107 0.707107 0
    outer loop
      vertex 4.5 35.5 3
      vertex 0 40 0
      vertex 3 37 3
    endloop
  endfacet
  facet normal 0.707107 0.707107 -0
    outer loop
      vertex 7.5 32.5 3
      vertex 4.5 35.5 3
      vertex 7.5 32.5 20
    endloop
  endfacet
  facet normal 0.707107 0.707107 0
    outer loop
      vertex 7.5 32.5 3
      vertex 0 40 0
      vertex 4.5 35.5 3
    endloop
  endfacet
  facet normal 0.707107 0.707107 0
    outer loop
      vertex 32.5 7.5 3
      vertex 0 40 0
      vertex 7.5 32.5 3
    endloop
  endfacet
  facet normal 0.707107 0.707107 -0
    outer loop
      vertex 35.5 4.5 3
      vertex 32.5 7.5 3
      vertex 35.5 4.5 20
    endloop
  endfacet
  facet normal 0.707107 0.707107 0
    outer loop
      vertex 40 0 0
      vertex 32.5 7.5 3
      vertex 35.5 4.5 3
    endloop
  endfacet
  facet normal 0.707107 0.707107 0
    outer loop
      vertex 40 0 0
      vertex 35.5 4.5 3
      vertex 37 3 3
    endloop
  endfacet
  facet normal 0.707107 0.707107 0
    outer loop
      vertex 32.5 7.5 3
      vertex 40 0 0
      vertex 0 40 0
    endloop
  endfacet
  facet normal 0.707107 0.707107 -0
    outer loop
      vertex 40 0 0
      vertex 37 3 3
      vertex 40 0 20
    endloop
  endfacet
  facet normal -1 0 0
    outer loop
      vertex 0 0 0
      vertex 0 40 20
      vertex 0 40 0
    endloop
  endfacet
  facet normal -1 -0 0
    outer loop
      vertex 0 40 20
      vertex 0 0 0
      vertex 0 0 20
    endloop
  endfacet
  facet normal 0 0 1
    outer loop
      vertex 3 37 20
      vertex 0 40 20
      vertex 3 3 20
    endloop
  endfacet
  facet normal -0 0 1
    outer loop
      vertex 3 3 20
      vertex 40 0 20
      vertex 37 3 20
    endloop
  endfacet
  facet normal 0 0 1
    outer loop
      vertex 3 3 20
      vertex 0 0 20
      vertex 40 0 20
    endloop
  endfacet
  facet normal 0 0 1
    outer loop
      vertex 0 0 20
      vertex 3 3 20
      vertex 0 40 20
    endloop
  endfacet
  facet normal 0 0 1
    outer loop
      vertex 4.5 7.5 20
      vertex 7.5 7.5 20
      vertex 7.5 32.5 20
    endloop
  endfacet
  facet normal 0 0 1
    outer loop
      vertex 4.5 7.5 20
      vertex 7.5 32.5 20
      vertex 4.5 35.5 20
    endloop
  endfacet
  facet normal 0 0 1
    outer loop
      vertex 7.5 7.5 20
      vertex 4.5 7.5 20
      vertex 7.5 4.5 20
    endloop
  endfacet
  facet normal 0 0 1
    outer loop
      vertex 7.5 4.5 20
      vertex 32.5 7.5 20
      vertex 7.5 7.5 20
    endloop
  endfacet
  facet normal 0 0 1
    outer loop
      vertex 32.5 7.5 20
      vertex 7.5 4.5 20
      vertex 35.5 4.5 20
    endloop
  endfacet
  facet normal 0 0 1
    outer loop
      vertex 32.5 7.5 3
      vertex 7.5 32.5 3
      vertex 7.5 7.5 3
    endloop
  endfacet
  facet normal 0 1 -0
    outer loop
      vertex 32.5 7.5 3
      vertex 7.5 7.5 20
      vertex 32.5 7.5 20
    endloop
  endfacet
  facet normal 0 1 0
    outer loop
      vertex 7.5 7.5 20
      vertex 32.5 7.5 3
      vertex 7.5 7.5 3
    endloop
  endfacet
  facet normal 1 -0 0
    outer loop
      vertex 7.5 7.5 20
      vertex 7.5 32.5 3
      vertex 7.5 32.5 20
    endloop
  endfacet
  facet normal 1 0 0
    outer loop
      vertex 7.5 32.5 3
      vertex 7.5 7.5 20
      vertex 7.5 7.5 3
    endloop
  endfacet
endsolid OpenSCAD_Model
